<?xml version="1.0" encoding="UTF-8" standalone="no"?>
<!DOCTYPE svg PUBLIC "-//W3C//DTD SVG 1.1//EN"
 "http://www.w3.org/Graphics/SVG/1.1/DTD/svg11.dtd">
<!-- Generated by graphviz version 2.40.1 (20161225.0304)
 -->
<!-- Title: UmlClassDiagram Pages: 1 -->
<svg width="2608pt" height="1638pt"
 viewBox="0.00 0.00 2607.78 1637.80" xmlns="http://www.w3.org/2000/svg" xmlns:xlink="http://www.w3.org/1999/xlink">
<g id="graph0" class="graph" transform="scale(1 1) rotate(0) translate(4 1633.8)">
<title>UmlClassDiagram</title>
<polygon fill="#ffffff" stroke="transparent" points="-4,4 -4,-1633.8 2603.7767,-1633.8 2603.7767,4 -4,4"/>
<!-- 0 -->
<g id="node1" class="node">
<title>0</title>
<polygon fill="#f2f2f2" stroke="#000000" points="1823.2674,-1386.9 1823.2674,-1511.7 2041.412,-1511.7 2041.412,-1386.9 1823.2674,-1386.9"/>
<text text-anchor="middle" x="1932.3397" y="-1495.1" font-family="Times,serif" font-size="14.00" fill="#000000">&lt;&lt;Abstract&gt;&gt;</text>
<text text-anchor="middle" x="1932.3397" y="-1478.3" font-family="Times,serif" font-size="14.00" fill="#000000">Context</text>
<polyline fill="none" stroke="#000000" points="1823.2674,-1470.1 2041.412,-1470.1 "/>
<text text-anchor="middle" x="1932.3397" y="-1453.5" font-family="Times,serif" font-size="14.00" fill="#000000"> </text>
<polyline fill="none" stroke="#000000" points="1823.2674,-1445.3 2041.412,-1445.3 "/>
<text text-anchor="start" x="1831.2674" y="-1428.7" font-family="Times,serif" font-size="14.00" fill="#000000">Internal:</text>
<text text-anchor="start" x="1831.2674" y="-1411.9" font-family="Times,serif" font-size="14.00" fill="#000000"> &#160;&#160;&#160;_msgSender(): (payable: address)</text>
<text text-anchor="start" x="1831.2674" y="-1395.1" font-family="Times,serif" font-size="14.00" fill="#000000"> &#160;&#160;&#160;_msgData(): bytes</text>
</g>
<!-- 1 -->
<g id="node2" class="node">
<title>1</title>
<polygon fill="#f2f2f2" stroke="#000000" points="67.5167,-1269.3 67.5167,-1629.3 359.1627,-1629.3 359.1627,-1269.3 67.5167,-1269.3"/>
<text text-anchor="middle" x="213.3397" y="-1612.7" font-family="Times,serif" font-size="14.00" fill="#000000">&lt;&lt;Library&gt;&gt;</text>
<text text-anchor="middle" x="213.3397" y="-1595.9" font-family="Times,serif" font-size="14.00" fill="#000000">EnumerableSet</text>
<polyline fill="none" stroke="#000000" points="67.5167,-1587.7 359.1627,-1587.7 "/>
<text text-anchor="middle" x="213.3397" y="-1571.1" font-family="Times,serif" font-size="14.00" fill="#000000"> </text>
<polyline fill="none" stroke="#000000" points="67.5167,-1562.9 359.1627,-1562.9 "/>
<text text-anchor="start" x="75.5167" y="-1546.3" font-family="Times,serif" font-size="14.00" fill="#000000">Private:</text>
<text text-anchor="start" x="75.5167" y="-1529.5" font-family="Times,serif" font-size="14.00" fill="#000000"> &#160;&#160;&#160;_add(set: Set, value: bytes32): bool</text>
<text text-anchor="start" x="75.5167" y="-1512.7" font-family="Times,serif" font-size="14.00" fill="#000000"> &#160;&#160;&#160;_remove(set: Set, value: bytes32): bool</text>
<text text-anchor="start" x="75.5167" y="-1495.9" font-family="Times,serif" font-size="14.00" fill="#000000"> &#160;&#160;&#160;_contains(set: Set, value: bytes32): bool</text>
<text text-anchor="start" x="75.5167" y="-1479.1" font-family="Times,serif" font-size="14.00" fill="#000000"> &#160;&#160;&#160;_length(set: Set): uint256</text>
<text text-anchor="start" x="75.5167" y="-1462.3" font-family="Times,serif" font-size="14.00" fill="#000000"> &#160;&#160;&#160;_at(set: Set, index: uint256): bytes32</text>
<text text-anchor="start" x="75.5167" y="-1445.5" font-family="Times,serif" font-size="14.00" fill="#000000">Internal:</text>
<text text-anchor="start" x="75.5167" y="-1428.7" font-family="Times,serif" font-size="14.00" fill="#000000"> &#160;&#160;&#160;add(set: AddressSet, value: address): bool</text>
<text text-anchor="start" x="75.5167" y="-1411.9" font-family="Times,serif" font-size="14.00" fill="#000000"> &#160;&#160;&#160;remove(set: AddressSet, value: address): bool</text>
<text text-anchor="start" x="75.5167" y="-1395.1" font-family="Times,serif" font-size="14.00" fill="#000000"> &#160;&#160;&#160;contains(set: AddressSet, value: address): bool</text>
<text text-anchor="start" x="75.5167" y="-1378.3" font-family="Times,serif" font-size="14.00" fill="#000000"> &#160;&#160;&#160;length(set: AddressSet): uint256</text>
<text text-anchor="start" x="75.5167" y="-1361.5" font-family="Times,serif" font-size="14.00" fill="#000000"> &#160;&#160;&#160;at(set: AddressSet, index: uint256): address</text>
<text text-anchor="start" x="75.5167" y="-1344.7" font-family="Times,serif" font-size="14.00" fill="#000000"> &#160;&#160;&#160;add(set: UintSet, value: uint256): bool</text>
<text text-anchor="start" x="75.5167" y="-1327.9" font-family="Times,serif" font-size="14.00" fill="#000000"> &#160;&#160;&#160;remove(set: UintSet, value: uint256): bool</text>
<text text-anchor="start" x="75.5167" y="-1311.1" font-family="Times,serif" font-size="14.00" fill="#000000"> &#160;&#160;&#160;contains(set: UintSet, value: uint256): bool</text>
<text text-anchor="start" x="75.5167" y="-1294.3" font-family="Times,serif" font-size="14.00" fill="#000000"> &#160;&#160;&#160;length(set: UintSet): uint256</text>
<text text-anchor="start" x="75.5167" y="-1277.5" font-family="Times,serif" font-size="14.00" fill="#000000"> &#160;&#160;&#160;at(set: UintSet, index: uint256): uint256</text>
</g>
<!-- 1struct0 -->
<g id="node3" class="node">
<title>1struct0</title>
<polygon fill="#f2f2f2" stroke="#000000" points="96.5436,-943.5 96.5436,-1026.7 330.1358,-1026.7 330.1358,-943.5 96.5436,-943.5"/>
<text text-anchor="middle" x="213.3397" y="-1010.1" font-family="Times,serif" font-size="14.00" fill="#000000">&lt;&lt;struct&gt;&gt;</text>
<text text-anchor="middle" x="213.3397" y="-993.3" font-family="Times,serif" font-size="14.00" fill="#000000">Set</text>
<polyline fill="none" stroke="#000000" points="96.5436,-985.1 330.1358,-985.1 "/>
<text text-anchor="start" x="104.5436" y="-968.5" font-family="Times,serif" font-size="14.00" fill="#000000">_values: bytes32[]</text>
<text text-anchor="start" x="104.5436" y="-951.7" font-family="Times,serif" font-size="14.00" fill="#000000">_indexes: mapping(bytes32=&gt;uint256)</text>
</g>
<!-- 1struct0&#45;&gt;1 -->
<g id="edge1" class="edge">
<title>1struct0&#45;&gt;1</title>
<path fill="none" stroke="#000000" d="M213.3397,-1026.7032C213.3397,-1078.8284 213.3397,-1171.7073 213.3397,-1257.1419"/>
<polygon fill="#000000" stroke="#000000" points="213.3398,-1257.1427 217.3397,-1263.1427 213.3397,-1269.1427 209.3397,-1263.1426 213.3398,-1257.1427"/>
</g>
<!-- 1struct1 -->
<g id="node4" class="node">
<title>1struct1</title>
<polygon fill="#f2f2f2" stroke="#000000" points="348.4603,-951.9 348.4603,-1018.3 428.2191,-1018.3 428.2191,-951.9 348.4603,-951.9"/>
<text text-anchor="middle" x="388.3397" y="-1001.7" font-family="Times,serif" font-size="14.00" fill="#000000">&lt;&lt;struct&gt;&gt;</text>
<text text-anchor="middle" x="388.3397" y="-984.9" font-family="Times,serif" font-size="14.00" fill="#000000">AddressSet</text>
<polyline fill="none" stroke="#000000" points="348.4603,-976.7 428.2191,-976.7 "/>
<text text-anchor="start" x="356.4603" y="-960.1" font-family="Times,serif" font-size="14.00" fill="#000000">_inner: Set</text>
</g>
<!-- 1struct1&#45;&gt;1 -->
<g id="edge2" class="edge">
<title>1struct1&#45;&gt;1</title>
<path fill="none" stroke="#000000" d="M385.2772,-1018.5181C380.0489,-1067.0267 367.1463,-1159.1899 339.3397,-1232.8 336.1607,-1241.2155 332.6728,-1249.6845 328.9466,-1258.1436"/>
<polygon fill="#000000" stroke="#000000" points="328.8664,-1258.3209 330.0356,-1265.4366 323.9169,-1269.2527 322.7477,-1262.137 328.8664,-1258.3209"/>
</g>
<!-- 1struct2 -->
<g id="node5" class="node">
<title>1struct2</title>
<polygon fill="#f2f2f2" stroke="#000000" points="0,-951.9 0,-1018.3 78.6794,-1018.3 78.6794,-951.9 0,-951.9"/>
<text text-anchor="middle" x="39.3397" y="-1001.7" font-family="Times,serif" font-size="14.00" fill="#000000">&lt;&lt;struct&gt;&gt;</text>
<text text-anchor="middle" x="39.3397" y="-984.9" font-family="Times,serif" font-size="14.00" fill="#000000">UintSet</text>
<polyline fill="none" stroke="#000000" points="0,-976.7 78.6794,-976.7 "/>
<text text-anchor="start" x="8" y="-960.1" font-family="Times,serif" font-size="14.00" fill="#000000">_inner: Set</text>
</g>
<!-- 1struct2&#45;&gt;1 -->
<g id="edge3" class="edge">
<title>1struct2&#45;&gt;1</title>
<path fill="none" stroke="#000000" d="M42.2317,-1018.5187C47.2202,-1067.028 59.6973,-1159.192 87.3397,-1232.8 90.5023,-1241.2217 93.9765,-1249.6959 97.6913,-1258.1592"/>
<polygon fill="#000000" stroke="#000000" points="97.7709,-1258.3358 103.885,-1262.1592 102.7073,-1269.2735 96.5933,-1265.4501 97.7709,-1258.3358"/>
</g>
<!-- 2 -->
<g id="node6" class="node">
<title>2</title>
<polygon fill="#f2f2f2" stroke="#000000" points="377.1225,-1336.5 377.1225,-1562.1 973.5569,-1562.1 973.5569,-1336.5 377.1225,-1336.5"/>
<text text-anchor="middle" x="675.3397" y="-1545.5" font-family="Times,serif" font-size="14.00" fill="#000000">&lt;&lt;Library&gt;&gt;</text>
<text text-anchor="middle" x="675.3397" y="-1528.7" font-family="Times,serif" font-size="14.00" fill="#000000">Address</text>
<polyline fill="none" stroke="#000000" points="377.1225,-1520.5 973.5569,-1520.5 "/>
<text text-anchor="middle" x="675.3397" y="-1503.9" font-family="Times,serif" font-size="14.00" fill="#000000"> </text>
<polyline fill="none" stroke="#000000" points="377.1225,-1495.7 973.5569,-1495.7 "/>
<text text-anchor="start" x="385.1225" y="-1479.1" font-family="Times,serif" font-size="14.00" fill="#000000">Private:</text>
<text text-anchor="start" x="385.1225" y="-1462.3" font-family="Times,serif" font-size="14.00" fill="#000000"> &#160;&#160;&#160;_functionCallWithValue(target: address, data: bytes, weiValue: uint256, errorMessage: string): bytes</text>
<text text-anchor="start" x="385.1225" y="-1445.5" font-family="Times,serif" font-size="14.00" fill="#000000">Internal:</text>
<text text-anchor="start" x="385.1225" y="-1428.7" font-family="Times,serif" font-size="14.00" fill="#000000"> &#160;&#160;&#160;isContract(account: address): bool</text>
<text text-anchor="start" x="385.1225" y="-1411.9" font-family="Times,serif" font-size="14.00" fill="#000000"> &#160;&#160;&#160;sendValue(recipient: address, amount: uint256)</text>
<text text-anchor="start" x="385.1225" y="-1395.1" font-family="Times,serif" font-size="14.00" fill="#000000"> &#160;&#160;&#160;functionCall(target: address, data: bytes): bytes</text>
<text text-anchor="start" x="385.1225" y="-1378.3" font-family="Times,serif" font-size="14.00" fill="#000000"> &#160;&#160;&#160;functionCall(target: address, data: bytes, errorMessage: string): bytes</text>
<text text-anchor="start" x="385.1225" y="-1361.5" font-family="Times,serif" font-size="14.00" fill="#000000"> &#160;&#160;&#160;functionCallWithValue(target: address, data: bytes, value: uint256): bytes</text>
<text text-anchor="start" x="385.1225" y="-1344.7" font-family="Times,serif" font-size="14.00" fill="#000000"> &#160;&#160;&#160;functionCallWithValue(target: address, data: bytes, value: uint256, errorMessage: string): bytes</text>
</g>
<!-- 3 -->
<g id="node7" class="node">
<title>3</title>
<polygon fill="#f2f2f2" stroke="#000000" points="609.0434,-779.9 609.0434,-1190.3 1219.636,-1190.3 1219.636,-779.9 609.0434,-779.9"/>
<text text-anchor="middle" x="914.3397" y="-1173.7" font-family="Times,serif" font-size="14.00" fill="#000000">&lt;&lt;Abstract&gt;&gt;</text>
<text text-anchor="middle" x="914.3397" y="-1156.9" font-family="Times,serif" font-size="14.00" fill="#000000">AccessControl</text>
<polyline fill="none" stroke="#000000" points="609.0434,-1148.7 1219.636,-1148.7 "/>
<text text-anchor="start" x="617.0434" y="-1132.1" font-family="Times,serif" font-size="14.00" fill="#000000">Private:</text>
<text text-anchor="start" x="617.0434" y="-1115.3" font-family="Times,serif" font-size="14.00" fill="#000000"> &#160;&#160;_roles: mapping(bytes32=&gt;RoleData)</text>
<text text-anchor="start" x="617.0434" y="-1098.5" font-family="Times,serif" font-size="14.00" fill="#000000">Public:</text>
<text text-anchor="start" x="617.0434" y="-1081.7" font-family="Times,serif" font-size="14.00" fill="#000000"> &#160;&#160;DEFAULT_ADMIN_ROLE: bytes32</text>
<polyline fill="none" stroke="#000000" points="609.0434,-1073.5 1219.636,-1073.5 "/>
<text text-anchor="start" x="617.0434" y="-1056.9" font-family="Times,serif" font-size="14.00" fill="#000000">Private:</text>
<text text-anchor="start" x="617.0434" y="-1040.1" font-family="Times,serif" font-size="14.00" fill="#000000"> &#160;&#160;&#160;_grantRole(role: bytes32, account: address)</text>
<text text-anchor="start" x="617.0434" y="-1023.3" font-family="Times,serif" font-size="14.00" fill="#000000"> &#160;&#160;&#160;_revokeRole(role: bytes32, account: address)</text>
<text text-anchor="start" x="617.0434" y="-1006.5" font-family="Times,serif" font-size="14.00" fill="#000000">Internal:</text>
<text text-anchor="start" x="617.0434" y="-989.7" font-family="Times,serif" font-size="14.00" fill="#000000"> &#160;&#160;&#160;_setupRole(role: bytes32, account: address)</text>
<text text-anchor="start" x="617.0434" y="-972.9" font-family="Times,serif" font-size="14.00" fill="#000000"> &#160;&#160;&#160;_setRoleAdmin(role: bytes32, adminRole: bytes32)</text>
<text text-anchor="start" x="617.0434" y="-956.1" font-family="Times,serif" font-size="14.00" fill="#000000">Public:</text>
<text text-anchor="start" x="617.0434" y="-939.3" font-family="Times,serif" font-size="14.00" fill="#000000"> &#160;&#160;&#160;&lt;&lt;event&gt;&gt; RoleAdminChanged(role: bytes32, previousAdminRole: bytes32, newAdminRole: bytes32)</text>
<text text-anchor="start" x="617.0434" y="-922.5" font-family="Times,serif" font-size="14.00" fill="#000000"> &#160;&#160;&#160;&lt;&lt;event&gt;&gt; RoleGranted(role: bytes32, account: address, sender: address)</text>
<text text-anchor="start" x="617.0434" y="-905.7" font-family="Times,serif" font-size="14.00" fill="#000000"> &#160;&#160;&#160;&lt;&lt;event&gt;&gt; RoleRevoked(role: bytes32, account: address, sender: address)</text>
<text text-anchor="start" x="617.0434" y="-888.9" font-family="Times,serif" font-size="14.00" fill="#000000"> &#160;&#160;&#160;hasRole(role: bytes32, account: address): bool</text>
<text text-anchor="start" x="617.0434" y="-872.1" font-family="Times,serif" font-size="14.00" fill="#000000"> &#160;&#160;&#160;getRoleMemberCount(role: bytes32): uint256</text>
<text text-anchor="start" x="617.0434" y="-855.3" font-family="Times,serif" font-size="14.00" fill="#000000"> &#160;&#160;&#160;getRoleMember(role: bytes32, index: uint256): address</text>
<text text-anchor="start" x="617.0434" y="-838.5" font-family="Times,serif" font-size="14.00" fill="#000000"> &#160;&#160;&#160;getRoleAdmin(role: bytes32): bytes32</text>
<text text-anchor="start" x="617.0434" y="-821.7" font-family="Times,serif" font-size="14.00" fill="#000000"> &#160;&#160;&#160;grantRole(role: bytes32, account: address)</text>
<text text-anchor="start" x="617.0434" y="-804.9" font-family="Times,serif" font-size="14.00" fill="#000000"> &#160;&#160;&#160;revokeRole(role: bytes32, account: address)</text>
<text text-anchor="start" x="617.0434" y="-788.1" font-family="Times,serif" font-size="14.00" fill="#000000"> &#160;&#160;&#160;renounceRole(role: bytes32, account: address)</text>
</g>
<!-- 3&#45;&gt;0 -->
<g id="edge5" class="edge">
<title>3&#45;&gt;0</title>
<path fill="none" stroke="#000000" d="M1204.2168,-1190.3673C1236.9181,-1207.0317 1270.6279,-1221.697 1304.3397,-1232.8 1412.253,-1268.3411 1716.3768,-1211.2525 1814.3397,-1268.8 1849.6182,-1289.524 1876.2805,-1325.4483 1895.2539,-1359.8183"/>
<polygon fill="none" stroke="#000000" points="1885.9462,-1364.6802 1908.8395,-1386.729 1904.6927,-1355.2162 1885.9462,-1364.6802"/>
</g>
<!-- 3&#45;&gt;1 -->
<g id="edge6" class="edge">
<title>3&#45;&gt;1</title>
<path fill="none" stroke="#000000" stroke-dasharray="5,2" d="M608.9547,-1143.6852C484.2696,-1208.4496 368.7248,-1268.4948 368.3397,-1268.8 368.0666,-1269.0165 367.7936,-1269.2335 367.5207,-1269.4511"/>
<polygon fill="#000000" stroke="#000000" points="365.1617,-1266.859 359.6422,-1275.9026 369.5967,-1272.2748 365.1617,-1266.859"/>
</g>
<!-- 3&#45;&gt;2 -->
<g id="edge7" class="edge">
<title>3&#45;&gt;2</title>
<path fill="none" stroke="#000000" stroke-dasharray="5,2" d="M808.6411,-1190.3941C784.602,-1237.0844 759.8077,-1285.2413 738.2198,-1327.1706"/>
<polygon fill="#000000" stroke="#000000" points="734.9869,-1325.8037 733.5211,-1336.2967 741.2105,-1329.008 734.9869,-1325.8037"/>
</g>
<!-- 3struct0 -->
<g id="node8" class="node">
<title>3struct0</title>
<polygon fill="#f2f2f2" stroke="#000000" points="800.5942,-554.9 800.5942,-638.1 1028.0852,-638.1 1028.0852,-554.9 800.5942,-554.9"/>
<text text-anchor="middle" x="914.3397" y="-621.5" font-family="Times,serif" font-size="14.00" fill="#000000">&lt;&lt;struct&gt;&gt;</text>
<text text-anchor="middle" x="914.3397" y="-604.7" font-family="Times,serif" font-size="14.00" fill="#000000">RoleData</text>
<polyline fill="none" stroke="#000000" points="800.5942,-596.5 1028.0852,-596.5 "/>
<text text-anchor="start" x="808.5942" y="-579.9" font-family="Times,serif" font-size="14.00" fill="#000000">members: EnumerableSet.AddressSet</text>
<text text-anchor="start" x="808.5942" y="-563.1" font-family="Times,serif" font-size="14.00" fill="#000000">adminRole: bytes32</text>
</g>
<!-- 3struct0&#45;&gt;3 -->
<g id="edge4" class="edge">
<title>3struct0&#45;&gt;3</title>
<path fill="none" stroke="#000000" d="M914.3397,-638.4562C914.3397,-670.729 914.3397,-718.0287 914.3397,-767.3739"/>
<polygon fill="#000000" stroke="#000000" points="914.3398,-767.6142 918.3397,-773.6142 914.3397,-779.6142 910.3397,-773.6142 914.3398,-767.6142"/>
</g>
<!-- 4 -->
<g id="node9" class="node">
<title>4</title>
<polygon fill="#f2f2f2" stroke="#000000" points="2114.9027,-492.1 2114.9027,-700.9 2599.7767,-700.9 2599.7767,-492.1 2114.9027,-492.1"/>
<text text-anchor="middle" x="2357.3397" y="-684.3" font-family="Times,serif" font-size="14.00" fill="#000000">&lt;&lt;Abstract&gt;&gt;</text>
<text text-anchor="middle" x="2357.3397" y="-667.5" font-family="Times,serif" font-size="14.00" fill="#000000">Ownable</text>
<polyline fill="none" stroke="#000000" points="2114.9027,-659.3 2599.7767,-659.3 "/>
<text text-anchor="start" x="2122.9027" y="-642.7" font-family="Times,serif" font-size="14.00" fill="#000000">Private:</text>
<text text-anchor="start" x="2122.9027" y="-625.9" font-family="Times,serif" font-size="14.00" fill="#000000"> &#160;&#160;_owner: address</text>
<polyline fill="none" stroke="#000000" points="2114.9027,-617.7 2599.7767,-617.7 "/>
<text text-anchor="start" x="2122.9027" y="-601.1" font-family="Times,serif" font-size="14.00" fill="#000000">Public:</text>
<text text-anchor="start" x="2122.9027" y="-584.3" font-family="Times,serif" font-size="14.00" fill="#000000"> &#160;&#160;&#160;&lt;&lt;event&gt;&gt; OwnershipTransferred(previousOwner: address, newOwner: address)</text>
<text text-anchor="start" x="2122.9027" y="-567.5" font-family="Times,serif" font-size="14.00" fill="#000000"> &#160;&#160;&#160;&lt;&lt;modifier&gt;&gt; onlyOwner()</text>
<text text-anchor="start" x="2122.9027" y="-550.7" font-family="Times,serif" font-size="14.00" fill="#000000"> &#160;&#160;&#160;constructor()</text>
<text text-anchor="start" x="2122.9027" y="-533.9" font-family="Times,serif" font-size="14.00" fill="#000000"> &#160;&#160;&#160;owner(): address</text>
<text text-anchor="start" x="2122.9027" y="-517.1" font-family="Times,serif" font-size="14.00" fill="#000000"> &#160;&#160;&#160;renounceOwnership()</text>
<text text-anchor="start" x="2122.9027" y="-500.3" font-family="Times,serif" font-size="14.00" fill="#000000"> &#160;&#160;&#160;transferOwnership(newOwner: address)</text>
</g>
<!-- 4&#45;&gt;0 -->
<g id="edge8" class="edge">
<title>4&#45;&gt;0</title>
<path fill="none" stroke="#000000" d="M2325.3054,-701.1585C2283.41,-830.746 2203.2045,-1055.9797 2101.3397,-1232.8 2074.9531,-1278.6027 2039.7283,-1325.3351 2008.2677,-1363.6031"/>
<polygon fill="none" stroke="#000000" points="2000.0103,-1357.1089 1988.7748,-1386.8413 2016.0994,-1370.6049 2000.0103,-1357.1089"/>
</g>
<!-- 5 -->
<g id="node10" class="node">
<title>5</title>
<polygon fill="#f2f2f2" stroke="#000000" points="1367.0398,-1328.1 1367.0398,-1570.5 1805.6396,-1570.5 1805.6396,-1328.1 1367.0398,-1328.1"/>
<text text-anchor="middle" x="1586.3397" y="-1553.9" font-family="Times,serif" font-size="14.00" fill="#000000">&lt;&lt;Interface&gt;&gt;</text>
<text text-anchor="middle" x="1586.3397" y="-1537.1" font-family="Times,serif" font-size="14.00" fill="#000000">IERC20</text>
<polyline fill="none" stroke="#000000" points="1367.0398,-1528.9 1805.6396,-1528.9 "/>
<text text-anchor="middle" x="1586.3397" y="-1512.3" font-family="Times,serif" font-size="14.00" fill="#000000"> </text>
<polyline fill="none" stroke="#000000" points="1367.0398,-1504.1 1805.6396,-1504.1 "/>
<text text-anchor="start" x="1375.0398" y="-1487.5" font-family="Times,serif" font-size="14.00" fill="#000000">External:</text>
<text text-anchor="start" x="1375.0398" y="-1470.7" font-family="Times,serif" font-size="14.00" fill="#000000"> &#160;&#160;&#160;&#160;totalSupply(): uint256</text>
<text text-anchor="start" x="1375.0398" y="-1453.9" font-family="Times,serif" font-size="14.00" fill="#000000"> &#160;&#160;&#160;&#160;balanceOf(account: address): uint256</text>
<text text-anchor="start" x="1375.0398" y="-1437.1" font-family="Times,serif" font-size="14.00" fill="#000000"> &#160;&#160;&#160;&#160;transfer(recipient: address, amount: uint256): bool</text>
<text text-anchor="start" x="1375.0398" y="-1420.3" font-family="Times,serif" font-size="14.00" fill="#000000"> &#160;&#160;&#160;&#160;allowance(owner: address, spender: address): uint256</text>
<text text-anchor="start" x="1375.0398" y="-1403.5" font-family="Times,serif" font-size="14.00" fill="#000000"> &#160;&#160;&#160;&#160;approve(spender: address, amount: uint256): bool</text>
<text text-anchor="start" x="1375.0398" y="-1386.7" font-family="Times,serif" font-size="14.00" fill="#000000"> &#160;&#160;&#160;&#160;transferFrom(sender: address, recipient: address, amount: uint256): bool</text>
<text text-anchor="start" x="1375.0398" y="-1369.9" font-family="Times,serif" font-size="14.00" fill="#000000">Public:</text>
<text text-anchor="start" x="1375.0398" y="-1353.1" font-family="Times,serif" font-size="14.00" fill="#000000"> &#160;&#160;&#160;&lt;&lt;event&gt;&gt; Transfer(from: address, to: address, value: uint256)</text>
<text text-anchor="start" x="1375.0398" y="-1336.3" font-family="Times,serif" font-size="14.00" fill="#000000"> &#160;&#160;&#160;&lt;&lt;event&gt;&gt; Approval(owner: address, spender: address, value: uint256)</text>
</g>
<!-- 6 -->
<g id="node11" class="node">
<title>6</title>
<polygon fill="#f2f2f2" stroke="#000000" points="991.6433,-1336.5 991.6433,-1562.1 1349.0361,-1562.1 1349.0361,-1336.5 991.6433,-1336.5"/>
<text text-anchor="middle" x="1170.3397" y="-1545.5" font-family="Times,serif" font-size="14.00" fill="#000000">&lt;&lt;Library&gt;&gt;</text>
<text text-anchor="middle" x="1170.3397" y="-1528.7" font-family="Times,serif" font-size="14.00" fill="#000000">SafeMath</text>
<polyline fill="none" stroke="#000000" points="991.6433,-1520.5 1349.0361,-1520.5 "/>
<text text-anchor="middle" x="1170.3397" y="-1503.9" font-family="Times,serif" font-size="14.00" fill="#000000"> </text>
<polyline fill="none" stroke="#000000" points="991.6433,-1495.7 1349.0361,-1495.7 "/>
<text text-anchor="start" x="999.6433" y="-1479.1" font-family="Times,serif" font-size="14.00" fill="#000000">Internal:</text>
<text text-anchor="start" x="999.6433" y="-1462.3" font-family="Times,serif" font-size="14.00" fill="#000000"> &#160;&#160;&#160;add(a: uint256, b: uint256): uint256</text>
<text text-anchor="start" x="999.6433" y="-1445.5" font-family="Times,serif" font-size="14.00" fill="#000000"> &#160;&#160;&#160;sub(a: uint256, b: uint256): uint256</text>
<text text-anchor="start" x="999.6433" y="-1428.7" font-family="Times,serif" font-size="14.00" fill="#000000"> &#160;&#160;&#160;sub(a: uint256, b: uint256, errorMessage: string): uint256</text>
<text text-anchor="start" x="999.6433" y="-1411.9" font-family="Times,serif" font-size="14.00" fill="#000000"> &#160;&#160;&#160;mul(a: uint256, b: uint256): uint256</text>
<text text-anchor="start" x="999.6433" y="-1395.1" font-family="Times,serif" font-size="14.00" fill="#000000"> &#160;&#160;&#160;div(a: uint256, b: uint256): uint256</text>
<text text-anchor="start" x="999.6433" y="-1378.3" font-family="Times,serif" font-size="14.00" fill="#000000"> &#160;&#160;&#160;div(a: uint256, b: uint256, errorMessage: string): uint256</text>
<text text-anchor="start" x="999.6433" y="-1361.5" font-family="Times,serif" font-size="14.00" fill="#000000"> &#160;&#160;&#160;mod(a: uint256, b: uint256): uint256</text>
<text text-anchor="start" x="999.6433" y="-1344.7" font-family="Times,serif" font-size="14.00" fill="#000000"> &#160;&#160;&#160;mod(a: uint256, b: uint256, errorMessage: string): uint256</text>
</g>
<!-- 7 -->
<g id="node12" class="node">
<title>7</title>
<polygon fill="#f2f2f2" stroke="#000000" points="1313.7898,-737.9 1313.7898,-1232.3 1748.8896,-1232.3 1748.8896,-737.9 1313.7898,-737.9"/>
<text text-anchor="middle" x="1531.3397" y="-1215.7" font-family="Times,serif" font-size="14.00" fill="#000000">ERC20</text>
<polyline fill="none" stroke="#000000" points="1313.7898,-1207.5 1748.8896,-1207.5 "/>
<text text-anchor="start" x="1321.7898" y="-1190.9" font-family="Times,serif" font-size="14.00" fill="#000000">Private:</text>
<text text-anchor="start" x="1321.7898" y="-1174.1" font-family="Times,serif" font-size="14.00" fill="#000000"> &#160;&#160;_balances: mapping(address=&gt;uint256)</text>
<text text-anchor="start" x="1321.7898" y="-1157.3" font-family="Times,serif" font-size="14.00" fill="#000000"> &#160;&#160;_allowances: mapping(address=&gt;mapping(address=&gt;uint256))</text>
<text text-anchor="start" x="1321.7898" y="-1140.5" font-family="Times,serif" font-size="14.00" fill="#000000"> &#160;&#160;_totalSupply: uint256</text>
<text text-anchor="start" x="1321.7898" y="-1123.7" font-family="Times,serif" font-size="14.00" fill="#000000"> &#160;&#160;_name: string</text>
<text text-anchor="start" x="1321.7898" y="-1106.9" font-family="Times,serif" font-size="14.00" fill="#000000"> &#160;&#160;_symbol: string</text>
<text text-anchor="start" x="1321.7898" y="-1090.1" font-family="Times,serif" font-size="14.00" fill="#000000"> &#160;&#160;_decimals: uint8</text>
<polyline fill="none" stroke="#000000" points="1313.7898,-1081.9 1748.8896,-1081.9 "/>
<text text-anchor="start" x="1321.7898" y="-1065.3" font-family="Times,serif" font-size="14.00" fill="#000000">Internal:</text>
<text text-anchor="start" x="1321.7898" y="-1048.5" font-family="Times,serif" font-size="14.00" fill="#000000"> &#160;&#160;&#160;_transfer(sender: address, recipient: address, amount: uint256)</text>
<text text-anchor="start" x="1321.7898" y="-1031.7" font-family="Times,serif" font-size="14.00" fill="#000000"> &#160;&#160;&#160;_mint(account: address, amount: uint256)</text>
<text text-anchor="start" x="1321.7898" y="-1014.9" font-family="Times,serif" font-size="14.00" fill="#000000"> &#160;&#160;&#160;_burn(account: address, amount: uint256)</text>
<text text-anchor="start" x="1321.7898" y="-998.1" font-family="Times,serif" font-size="14.00" fill="#000000"> &#160;&#160;&#160;_approve(owner: address, spender: address, amount: uint256)</text>
<text text-anchor="start" x="1321.7898" y="-981.3" font-family="Times,serif" font-size="14.00" fill="#000000"> &#160;&#160;&#160;_setupDecimals(decimals_: uint8)</text>
<text text-anchor="start" x="1321.7898" y="-964.5" font-family="Times,serif" font-size="14.00" fill="#000000"> &#160;&#160;&#160;_beforeTokenTransfer(from: address, to: address, amount: uint256)</text>
<text text-anchor="start" x="1321.7898" y="-947.7" font-family="Times,serif" font-size="14.00" fill="#000000">Public:</text>
<text text-anchor="start" x="1321.7898" y="-930.9" font-family="Times,serif" font-size="14.00" fill="#000000"> &#160;&#160;&#160;constructor(name_: string, symbol_: string)</text>
<text text-anchor="start" x="1321.7898" y="-914.1" font-family="Times,serif" font-size="14.00" fill="#000000"> &#160;&#160;&#160;name(): string</text>
<text text-anchor="start" x="1321.7898" y="-897.3" font-family="Times,serif" font-size="14.00" fill="#000000"> &#160;&#160;&#160;symbol(): string</text>
<text text-anchor="start" x="1321.7898" y="-880.5" font-family="Times,serif" font-size="14.00" fill="#000000"> &#160;&#160;&#160;decimals(): uint8</text>
<text text-anchor="start" x="1321.7898" y="-863.7" font-family="Times,serif" font-size="14.00" fill="#000000"> &#160;&#160;&#160;totalSupply(): uint256</text>
<text text-anchor="start" x="1321.7898" y="-846.9" font-family="Times,serif" font-size="14.00" fill="#000000"> &#160;&#160;&#160;balanceOf(account: address): uint256</text>
<text text-anchor="start" x="1321.7898" y="-830.1" font-family="Times,serif" font-size="14.00" fill="#000000"> &#160;&#160;&#160;transfer(recipient: address, amount: uint256): bool</text>
<text text-anchor="start" x="1321.7898" y="-813.3" font-family="Times,serif" font-size="14.00" fill="#000000"> &#160;&#160;&#160;allowance(owner: address, spender: address): uint256</text>
<text text-anchor="start" x="1321.7898" y="-796.5" font-family="Times,serif" font-size="14.00" fill="#000000"> &#160;&#160;&#160;approve(spender: address, amount: uint256): bool</text>
<text text-anchor="start" x="1321.7898" y="-779.7" font-family="Times,serif" font-size="14.00" fill="#000000"> &#160;&#160;&#160;transferFrom(sender: address, recipient: address, amount: uint256): bool</text>
<text text-anchor="start" x="1321.7898" y="-762.9" font-family="Times,serif" font-size="14.00" fill="#000000"> &#160;&#160;&#160;increaseAllowance(spender: address, addedValue: uint256): bool</text>
<text text-anchor="start" x="1321.7898" y="-746.1" font-family="Times,serif" font-size="14.00" fill="#000000"> &#160;&#160;&#160;decreaseAllowance(spender: address, subtractedValue: uint256): bool</text>
</g>
<!-- 7&#45;&gt;0 -->
<g id="edge9" class="edge">
<title>7&#45;&gt;0</title>
<path fill="none" stroke="#000000" d="M1748.9943,-1220.0745C1753.7779,-1224.394 1758.5628,-1228.6407 1763.3397,-1232.8 1784.2644,-1251.0191 1795.074,-1248.8347 1814.3397,-1268.8 1840.479,-1295.8885 1864.2881,-1329.5426 1883.5652,-1360.4261"/>
<polygon fill="none" stroke="#000000" points="1874.8433,-1366.2978 1899.2837,-1386.6183 1892.8497,-1355.4918 1874.8433,-1366.2978"/>
</g>
<!-- 7&#45;&gt;2 -->
<g id="edge12" class="edge">
<title>7&#45;&gt;2</title>
<path fill="none" stroke="#000000" stroke-dasharray="5,2" d="M1313.6547,-1185.0547C1286.2625,-1203.4127 1257.559,-1219.9154 1228.3397,-1232.8 1127.2353,-1277.3833 1086.5705,-1232.116 982.3397,-1268.8 937.4195,-1284.6096 891.7396,-1307.2449 849.8232,-1331.1677"/>
<polygon fill="#000000" stroke="#000000" points="847.853,-1328.2635 840.9375,-1336.2901 851.3491,-1334.3279 847.853,-1328.2635"/>
</g>
<!-- 7&#45;&gt;5 -->
<g id="edge10" class="edge">
<title>7&#45;&gt;5</title>
<path fill="none" stroke="#000000" stroke-dasharray="5,2" d="M1560.6513,-1232.4897C1563.2941,-1254.7954 1565.9146,-1276.9119 1568.4144,-1298.0105"/>
<polygon fill="none" stroke="#000000" points="1558.0222,-1299.5412 1571.9792,-1328.0974 1578.8764,-1297.0703 1558.0222,-1299.5412"/>
</g>
<!-- 7&#45;&gt;6 -->
<g id="edge11" class="edge">
<title>7&#45;&gt;6</title>
<path fill="none" stroke="#000000" stroke-dasharray="5,2" d="M1338.9492,-1232.4897C1313.1203,-1265.7024 1287.6175,-1298.4957 1264.5687,-1328.1335"/>
<polygon fill="#000000" stroke="#000000" points="1261.5107,-1326.3644 1258.1346,-1336.407 1267.0364,-1330.6617 1261.5107,-1326.3644"/>
</g>
<!-- 8 -->
<g id="node13" class="node">
<title>8</title>
<polygon fill="#f2f2f2" stroke="#000000" points="1345.6461,-534.1 1345.6461,-658.9 1633.0333,-658.9 1633.0333,-534.1 1345.6461,-534.1"/>
<text text-anchor="middle" x="1489.3397" y="-642.3" font-family="Times,serif" font-size="14.00" fill="#000000">&lt;&lt;Abstract&gt;&gt;</text>
<text text-anchor="middle" x="1489.3397" y="-625.5" font-family="Times,serif" font-size="14.00" fill="#000000">ERC20Burnable</text>
<polyline fill="none" stroke="#000000" points="1345.6461,-617.3 1633.0333,-617.3 "/>
<text text-anchor="middle" x="1489.3397" y="-600.7" font-family="Times,serif" font-size="14.00" fill="#000000"> </text>
<polyline fill="none" stroke="#000000" points="1345.6461,-592.5 1633.0333,-592.5 "/>
<text text-anchor="start" x="1353.6461" y="-575.9" font-family="Times,serif" font-size="14.00" fill="#000000">Public:</text>
<text text-anchor="start" x="1353.6461" y="-559.1" font-family="Times,serif" font-size="14.00" fill="#000000"> &#160;&#160;&#160;burn(amount: uint256)</text>
<text text-anchor="start" x="1353.6461" y="-542.3" font-family="Times,serif" font-size="14.00" fill="#000000"> &#160;&#160;&#160;burnFrom(account: address, amount: uint256)</text>
</g>
<!-- 8&#45;&gt;0 -->
<g id="edge13" class="edge">
<title>8&#45;&gt;0</title>
<path fill="none" stroke="#000000" d="M1570.7573,-658.9618C1593.1484,-674.2621 1617.9911,-689.6093 1642.3397,-701.4 1690.9243,-724.9269 1724.6822,-695.1963 1758.3397,-737.4 1827.1821,-823.7226 1761.7421,-1127.9483 1796.3397,-1232.8 1801.091,-1247.1992 1839.5155,-1307.9062 1874.3133,-1361.3851"/>
<polygon fill="none" stroke="#000000" points="1865.7379,-1367.4568 1890.9411,-1386.8231 1883.3158,-1355.9668 1865.7379,-1367.4568"/>
</g>
<!-- 8&#45;&gt;6 -->
<g id="edge15" class="edge">
<title>8&#45;&gt;6</title>
<path fill="none" stroke="#000000" stroke-dasharray="5,2" d="M1376.5457,-659.0495C1348.3794,-680.2012 1321.3763,-706.4535 1304.3397,-737.4 1251.0479,-834.2032 1287.8471,-1125.5236 1261.3397,-1232.8 1253.5841,-1264.187 1241.902,-1296.9021 1229.47,-1327.1111"/>
<polygon fill="#000000" stroke="#000000" points="1226.2141,-1325.825 1225.5912,-1336.4016 1232.6738,-1328.522 1226.2141,-1325.825"/>
</g>
<!-- 8&#45;&gt;7 -->
<g id="edge14" class="edge">
<title>8&#45;&gt;7</title>
<path fill="none" stroke="#000000" d="M1496.0877,-658.9353C1497.6645,-673.5241 1499.4442,-689.9908 1501.3452,-707.5793"/>
<polygon fill="none" stroke="#000000" points="1490.9244,-708.879 1504.5873,-737.577 1511.8028,-706.6224 1490.9244,-708.879"/>
</g>
<!-- 9 -->
<g id="node14" class="node">
<title>9</title>
<polygon fill="#f2f2f2" stroke="#000000" points="1805.5378,-855.5 1805.5378,-1114.7 2059.1416,-1114.7 2059.1416,-855.5 1805.5378,-855.5"/>
<text text-anchor="middle" x="1932.3397" y="-1098.1" font-family="Times,serif" font-size="14.00" fill="#000000">&lt;&lt;Abstract&gt;&gt;</text>
<text text-anchor="middle" x="1932.3397" y="-1081.3" font-family="Times,serif" font-size="14.00" fill="#000000">Pausable</text>
<polyline fill="none" stroke="#000000" points="1805.5378,-1073.1 2059.1416,-1073.1 "/>
<text text-anchor="start" x="1813.5378" y="-1056.5" font-family="Times,serif" font-size="14.00" fill="#000000">Private:</text>
<text text-anchor="start" x="1813.5378" y="-1039.7" font-family="Times,serif" font-size="14.00" fill="#000000"> &#160;&#160;_paused: bool</text>
<polyline fill="none" stroke="#000000" points="1805.5378,-1031.5 2059.1416,-1031.5 "/>
<text text-anchor="start" x="1813.5378" y="-1014.9" font-family="Times,serif" font-size="14.00" fill="#000000">Internal:</text>
<text text-anchor="start" x="1813.5378" y="-998.1" font-family="Times,serif" font-size="14.00" fill="#000000"> &#160;&#160;&#160;_pause()</text>
<text text-anchor="start" x="1813.5378" y="-981.3" font-family="Times,serif" font-size="14.00" fill="#000000"> &#160;&#160;&#160;_unpause()</text>
<text text-anchor="start" x="1813.5378" y="-964.5" font-family="Times,serif" font-size="14.00" fill="#000000">Public:</text>
<text text-anchor="start" x="1813.5378" y="-947.7" font-family="Times,serif" font-size="14.00" fill="#000000"> &#160;&#160;&#160;&lt;&lt;event&gt;&gt; Paused(account: address)</text>
<text text-anchor="start" x="1813.5378" y="-930.9" font-family="Times,serif" font-size="14.00" fill="#000000"> &#160;&#160;&#160;&lt;&lt;event&gt;&gt; Unpaused(account: address)</text>
<text text-anchor="start" x="1813.5378" y="-914.1" font-family="Times,serif" font-size="14.00" fill="#000000"> &#160;&#160;&#160;&lt;&lt;modifier&gt;&gt; whenNotPaused()</text>
<text text-anchor="start" x="1813.5378" y="-897.3" font-family="Times,serif" font-size="14.00" fill="#000000"> &#160;&#160;&#160;&lt;&lt;modifier&gt;&gt; whenPaused()</text>
<text text-anchor="start" x="1813.5378" y="-880.5" font-family="Times,serif" font-size="14.00" fill="#000000"> &#160;&#160;&#160;constructor()</text>
<text text-anchor="start" x="1813.5378" y="-863.7" font-family="Times,serif" font-size="14.00" fill="#000000"> &#160;&#160;&#160;paused(): bool</text>
</g>
<!-- 9&#45;&gt;0 -->
<g id="edge16" class="edge">
<title>9&#45;&gt;0</title>
<path fill="none" stroke="#000000" d="M1932.3397,-1114.7141C1932.3397,-1191.5367 1932.3397,-1287.1029 1932.3397,-1356.4072"/>
<polygon fill="none" stroke="#000000" points="1921.8398,-1356.7095 1932.3397,-1386.7096 1942.8398,-1356.7096 1921.8398,-1356.7095"/>
</g>
<!-- 10 -->
<g id="node15" class="node">
<title>10</title>
<polygon fill="#f2f2f2" stroke="#000000" points="1651.2116,-542.5 1651.2116,-650.5 2059.4678,-650.5 2059.4678,-542.5 1651.2116,-542.5"/>
<text text-anchor="middle" x="1855.3397" y="-633.9" font-family="Times,serif" font-size="14.00" fill="#000000">&lt;&lt;Abstract&gt;&gt;</text>
<text text-anchor="middle" x="1855.3397" y="-617.1" font-family="Times,serif" font-size="14.00" fill="#000000">ERC20Pausable</text>
<polyline fill="none" stroke="#000000" points="1651.2116,-608.9 2059.4678,-608.9 "/>
<text text-anchor="middle" x="1855.3397" y="-592.3" font-family="Times,serif" font-size="14.00" fill="#000000"> </text>
<polyline fill="none" stroke="#000000" points="1651.2116,-584.1 2059.4678,-584.1 "/>
<text text-anchor="start" x="1659.2116" y="-567.5" font-family="Times,serif" font-size="14.00" fill="#000000">Internal:</text>
<text text-anchor="start" x="1659.2116" y="-550.7" font-family="Times,serif" font-size="14.00" fill="#000000"> &#160;&#160;&#160;_beforeTokenTransfer(from: address, to: address, amount: uint256)</text>
</g>
<!-- 10&#45;&gt;7 -->
<g id="edge17" class="edge">
<title>10&#45;&gt;7</title>
<path fill="none" stroke="#000000" d="M1810.2889,-650.5332C1795.0038,-668.8659 1776.7444,-690.7658 1756.9828,-714.4676"/>
<polygon fill="none" stroke="#000000" points="1748.7705,-707.9208 1737.6237,-737.6866 1764.8997,-721.3687 1748.7705,-707.9208"/>
</g>
<!-- 10&#45;&gt;9 -->
<g id="edge18" class="edge">
<title>10&#45;&gt;9</title>
<path fill="none" stroke="#000000" d="M1866.0462,-650.5332C1875.0512,-695.9791 1888.3999,-763.3467 1900.7635,-825.743"/>
<polygon fill="none" stroke="#000000" points="1890.5054,-827.9941 1906.6363,-855.3811 1911.1049,-823.9123 1890.5054,-827.9941"/>
</g>
<!-- 11 -->
<g id="node16" class="node">
<title>11</title>
<polygon fill="#f2f2f2" stroke="#000000" points="1632.3137,-128.7 1632.3137,-455.1 2078.3657,-455.1 2078.3657,-128.7 1632.3137,-128.7"/>
<text text-anchor="middle" x="1855.3397" y="-438.5" font-family="Times,serif" font-size="14.00" fill="#000000">AcsERC20</text>
<polyline fill="none" stroke="#000000" points="1632.3137,-430.3 2078.3657,-430.3 "/>
<text text-anchor="start" x="1640.3137" y="-413.7" font-family="Times,serif" font-size="14.00" fill="#000000">Private:</text>
<text text-anchor="start" x="1640.3137" y="-396.9" font-family="Times,serif" font-size="14.00" fill="#000000"> &#160;&#160;__gap: uint256[]</text>
<text text-anchor="start" x="1640.3137" y="-380.1" font-family="Times,serif" font-size="14.00" fill="#000000">Public:</text>
<text text-anchor="start" x="1640.3137" y="-363.3" font-family="Times,serif" font-size="14.00" fill="#000000"> &#160;&#160;MINTER_ROLE: bytes32</text>
<text text-anchor="start" x="1640.3137" y="-346.5" font-family="Times,serif" font-size="14.00" fill="#000000"> &#160;&#160;PAUSER_ROLE: bytes32</text>
<text text-anchor="start" x="1640.3137" y="-329.7" font-family="Times,serif" font-size="14.00" fill="#000000"> &#160;&#160;BURNER_ROLE: bytes32</text>
<polyline fill="none" stroke="#000000" points="1632.3137,-321.5 2078.3657,-321.5 "/>
<text text-anchor="start" x="1640.3137" y="-304.9" font-family="Times,serif" font-size="14.00" fill="#000000">Internal:</text>
<text text-anchor="start" x="1640.3137" y="-288.1" font-family="Times,serif" font-size="14.00" fill="#000000"> &#160;&#160;&#160;_beforeTokenTransfer(from: address, to: address, amount: uint256)</text>
<text text-anchor="start" x="1640.3137" y="-271.3" font-family="Times,serif" font-size="14.00" fill="#000000">Public:</text>
<text text-anchor="start" x="1640.3137" y="-254.5" font-family="Times,serif" font-size="14.00" fill="#000000"> &#160;&#160;&#160;constructor(name: string, symbol: string, amount: uint256, decimal: uint8)</text>
<text text-anchor="start" x="1640.3137" y="-237.7" font-family="Times,serif" font-size="14.00" fill="#000000"> &#160;&#160;&#160;transferOwnership(newOwner: address)</text>
<text text-anchor="start" x="1640.3137" y="-220.9" font-family="Times,serif" font-size="14.00" fill="#000000"> &#160;&#160;&#160;renounceOwnership()</text>
<text text-anchor="start" x="1640.3137" y="-204.1" font-family="Times,serif" font-size="14.00" fill="#000000"> &#160;&#160;&#160;mint(to: address, amount: uint256)</text>
<text text-anchor="start" x="1640.3137" y="-187.3" font-family="Times,serif" font-size="14.00" fill="#000000"> &#160;&#160;&#160;pause()</text>
<text text-anchor="start" x="1640.3137" y="-170.5" font-family="Times,serif" font-size="14.00" fill="#000000"> &#160;&#160;&#160;unpause()</text>
<text text-anchor="start" x="1640.3137" y="-153.7" font-family="Times,serif" font-size="14.00" fill="#000000"> &#160;&#160;&#160;burn(amount: uint256)</text>
<text text-anchor="start" x="1640.3137" y="-136.9" font-family="Times,serif" font-size="14.00" fill="#000000"> &#160;&#160;&#160;burnFrom(account: address, amount: uint256)</text>
</g>
<!-- 11&#45;&gt;0 -->
<g id="edge19" class="edge">
<title>11&#45;&gt;0</title>
<path fill="none" stroke="#000000" d="M2048.6712,-455.257C2056.237,-466.9107 2062.8992,-479.0415 2068.3397,-491.6 2101.0773,-567.1691 2091.1339,-1153.6618 2068.3397,-1232.8 2055.0637,-1278.8924 2028.7627,-1324.6488 2002.7985,-1362.1399"/>
<polygon fill="none" stroke="#000000" points="1994.123,-1356.2179 1985.0413,-1386.6773 2011.1355,-1368.5295 1994.123,-1356.2179"/>
</g>
<!-- 11&#45;&gt;3 -->
<g id="edge20" class="edge">
<title>11&#45;&gt;3</title>
<path fill="none" stroke="#000000" d="M1632.2479,-325.203C1505.2883,-352.9901 1349.023,-402.9597 1233.3397,-491.6 1144.2437,-559.8683 1072.8085,-660.6101 1020.3105,-753.3029"/>
<polygon fill="none" stroke="#000000" points="1010.9685,-748.4995 1005.663,-779.838 1029.3535,-758.6481 1010.9685,-748.4995"/>
</g>
<!-- 11&#45;&gt;4 -->
<g id="edge21" class="edge">
<title>11&#45;&gt;4</title>
<path fill="none" stroke="#000000" d="M2078.4476,-427.2759C2105.3951,-443.6268 2132.7768,-460.2413 2159.3295,-476.3527"/>
<polygon fill="none" stroke="#000000" points="2153.9282,-485.3571 2185.0229,-491.9428 2164.8219,-467.4036 2153.9282,-485.3571"/>
</g>
<!-- 11&#45;&gt;6 -->
<g id="edge24" class="edge">
<title>11&#45;&gt;6</title>
<path fill="none" stroke="#000000" stroke-dasharray="5,2" d="M1632.1928,-331.0212C1529.5731,-359.5994 1413.7314,-408.4952 1336.3397,-491.6 1222.9029,-613.4107 1255.5373,-1068.5866 1228.3397,-1232.8 1223.2479,-1263.5433 1215.666,-1296.2385 1207.6501,-1326.656"/>
<polygon fill="#000000" stroke="#000000" points="1204.2342,-1325.8819 1205.0349,-1336.4464 1210.9971,-1327.6884 1204.2342,-1325.8819"/>
</g>
<!-- 11&#45;&gt;8 -->
<g id="edge22" class="edge">
<title>11&#45;&gt;8</title>
<path fill="none" stroke="#000000" d="M1659.2145,-455.1233C1634.5289,-475.6677 1610.1635,-495.9456 1587.9273,-514.4514"/>
<polygon fill="none" stroke="#000000" points="1581.0624,-506.504 1564.7201,-533.7654 1594.4959,-522.6454 1581.0624,-506.504"/>
</g>
<!-- 11&#45;&gt;10 -->
<g id="edge23" class="edge">
<title>11&#45;&gt;10</title>
<path fill="none" stroke="#000000" d="M1855.3397,-455.3459C1855.3397,-475.016 1855.3397,-494.4369 1855.3397,-512.2866"/>
<polygon fill="none" stroke="#000000" points="1844.8398,-512.4336 1855.3397,-542.4336 1865.8398,-512.4337 1844.8398,-512.4336"/>
</g>
<!-- 12 -->
<g id="node17" class="node">
<title>12</title>
<polygon fill="#f2f2f2" stroke="#000000" points="1791.738,-.5 1791.738,-91.7 1918.9414,-91.7 1918.9414,-.5 1791.738,-.5"/>
<text text-anchor="middle" x="1855.3397" y="-75.1" font-family="Times,serif" font-size="14.00" fill="#000000">AcsERC20_Google</text>
<polyline fill="none" stroke="#000000" points="1791.738,-66.9 1918.9414,-66.9 "/>
<text text-anchor="middle" x="1855.3397" y="-50.3" font-family="Times,serif" font-size="14.00" fill="#000000"> </text>
<polyline fill="none" stroke="#000000" points="1791.738,-42.1 1918.9414,-42.1 "/>
<text text-anchor="start" x="1799.738" y="-25.5" font-family="Times,serif" font-size="14.00" fill="#000000">Public:</text>
<text text-anchor="start" x="1799.738" y="-8.7" font-family="Times,serif" font-size="14.00" fill="#000000"> &#160;&#160;&#160;constructor()</text>
</g>
<!-- 12&#45;&gt;11 -->
<g id="edge25" class="edge">
<title>12&#45;&gt;11</title>
<path fill="none" stroke="#000000" d="M1855.3397,-91.757C1855.3397,-93.9263 1855.3397,-96.1496 1855.3397,-98.4216"/>
<polygon fill="none" stroke="#000000" points="1844.8398,-98.6102 1855.3397,-128.6102 1865.8398,-98.6103 1844.8398,-98.6102"/>
</g>
</g>
</svg>
